<?xml version="1.0" encoding="UTF-8"?>
<svg id="Layer_1" data-name="Layer 1" xmlns="http://www.w3.org/2000/svg" viewBox="0 0 22.38 4.31">
  <defs>
    <style>
      .cls-1, .cls-2 {
        stroke-width: 0px;
      }

      .cls-2 {
        fill: #e36922;
      }
    </style>
  </defs>
  <path class="cls-2" d="m3.77,3.79c-.29,0-.58-.1-.84-.28-.51.36-1.16.36-1.67,0-.26.18-.55.28-.84.28h-.42v.42h.42c.29,0,.57-.07.84-.21.52.27,1.15.27,1.67,0,.26.14.55.21.84.21h.42v-.42h-.42m.16-.21h-.16c-.25,0-.49-.08-.72-.24l-.12-.08-.12.08c-.22.15-.46.23-.72.23s-.5-.08-.72-.23l-.12-.08-.12.08c-.22.16-.47.24-.72.24h-.16c.11-.31.49-.84,1.84-.84.42,0,.63.05.63.05.14-.29.38-.94.21-1.76l.22.15c.07.3.2.88-.05,1.7.55.18.76.49.83.7m.26-2.39c-.17-.23-.42-.39-.72-.43.03.03.05.06.07.1.25.4.2.9-.09,1.25.12-.3.11-.66-.08-.96-.02-.02-.03-.03-.04-.05-.08-.12-.2-.22-.32-.29-.42.14-.73.53-.73,1,0,.11.02.22.05.31-.13-.17-.2-.38-.2-.61,0-.35.17-.65.43-.85-.22-.02-.44.03-.64.16-.09.06-.17.13-.24.21.08-.2.22-.37.42-.49.22-.14.47-.19.71-.15-.06-.08-.13-.16-.22-.23-.09-.06-.18-.12-.28-.15.21,0,.43.08.61.21.09.07.17.15.23.24.01,0,.03,0,.04,0,.47,0,.87.31,1.01.74Z"/>
  <g>
    <path class="cls-1" d="m8.45,1.39s.03-.02.07,0c.03.01.07.04.1.07.03.03.06.07.08.11s.02.08,0,.13c-.08.09-.17.2-.26.31-.09.12-.18.24-.26.36s-.17.26-.25.39c-.08.14-.16.27-.23.4.04.03.08.05.12.08s.08.05.13.07c.02,0,.03.02.03.04s-.02.04-.04.07c-.02.02-.04.04-.07.06-.03.02-.05.03-.07.04l-.18-.1-.04-.02c-.09.17-.16.32-.22.47-.06.14-.11.26-.13.37,0,.01-.02.01-.04,0s-.04-.04-.07-.07c-.02-.03-.05-.06-.07-.09-.02-.03-.03-.05-.03-.07.02-.09.06-.21.11-.34.05-.13.12-.27.19-.42-.05-.03-.11-.06-.16-.08-.05-.03-.11-.05-.16-.07-.13.15-.27.29-.41.43s-.28.26-.42.36c-.14.1-.28.19-.41.25-.13.06-.26.09-.37.09-.21,0-.36-.04-.45-.13-.09-.09-.12-.23-.09-.43.02-.15.08-.28.17-.41.09-.12.2-.23.33-.32s.27-.16.43-.22c.15-.05.31-.09.46-.09.02,0,.05,0,.08,0,.03,0,.05,0,.07,0,.11,0,.21,0,.3.02.09.01.18.04.25.06.09-.11.16-.21.24-.31.07-.1.14-.2.19-.29.06-.09.1-.17.14-.25.04-.07.06-.14.08-.18,0-.06,0-.11-.03-.15-.03-.03-.07-.05-.13-.05-.11,0-.22.03-.33.08-.11.06-.21.13-.3.22-.09.09-.18.19-.25.3-.07.11-.14.23-.19.34h0s-.02.03-.04.04c-.02.01-.04.03-.07.04s-.05.02-.08.02c-.03,0-.05.01-.08.01-.02,0-.04,0-.05,0-.01,0-.02-.01,0-.03h0s.01-.04.01-.04c0-.03.02-.05.03-.07,0-.02.02-.04.03-.06,0-.02.02-.04.03-.06s.03-.05.05-.09c.07-.11.15-.22.25-.33s.2-.21.32-.3c.11-.09.23-.16.35-.21s.24-.09.36-.09c.07,0,.13,0,.18.03.05.03.1.06.13.1.04.04.06.1.08.15.01.06.02.12,0,.19-.02.07-.05.14-.08.23-.04.08-.08.17-.14.27-.06.09-.12.19-.19.29-.07.1-.15.21-.23.31.04.02.08.05.12.07s.08.05.12.08c.08-.15.16-.3.25-.45s.18-.3.27-.44.18-.27.26-.4.16-.23.23-.31h0Zm-3.16,2.55c.1,0,.21-.03.33-.08.12-.05.23-.12.35-.2s.24-.18.36-.3c.12-.11.23-.23.34-.35-.11-.02-.23-.03-.37-.03-.03,0-.06,0-.08,0-.03,0-.05,0-.08,0-.12,0-.25.04-.37.08-.13.04-.25.1-.35.16s-.2.13-.27.21c-.07.08-.12.15-.13.23,0,.05,0,.09.02.12.02.03.04.06.06.08s.06.04.09.05.07.02.1.02Z"/>
    <path class="cls-1" d="m9.17,2.86s0,.02-.02.02-.02,0-.04.01c-.01,0-.03,0-.05,0s-.03,0-.04,0c.02.01.04.03.06.05.02.02.04.04.05.07.01.02.02.05.03.07,0,.02,0,.05,0,.07,0,.01-.01.02-.02.04,0,.01-.02.03-.02.04-.02.03-.04.06-.06.1-.02.04-.04.07-.05.11-.02.04-.03.07-.04.1-.01.03-.02.06-.02.08,0,0,0,0,0,0,0,0,0,0,0,0h.02s.1-.04.14-.08c.05-.04.09-.08.13-.13.04-.05.09-.1.13-.16.04-.06.08-.11.12-.16.01-.01.02-.03.03-.04,0,0,.01-.02.02-.03,0,0,.02,0,.04,0s.04.01.05.02.03.03.04.04,0,.03,0,.04l-.07.1h0c-.07.1-.14.2-.22.29s-.16.18-.26.26c-.01.01-.03.03-.06.04-.02.02-.05.03-.07.04-.03.01-.06.03-.09.03-.03,0-.06.01-.1.01-.08,0-.13-.04-.17-.08-.03-.05-.04-.11-.04-.19-.07.07-.15.13-.23.18-.08.05-.15.08-.22.08-.06,0-.11-.02-.15-.05-.04-.03-.06-.06-.08-.1-.02-.04-.03-.08-.03-.13,0-.04,0-.09,0-.13,0-.04.01-.07.02-.09.02-.06.04-.13.08-.2.04-.07.08-.14.14-.22.05-.07.11-.14.17-.21s.13-.13.2-.18.14-.09.22-.13.15-.05.22-.05c.02,0,.04,0,.06,0,.02,0,.04,0,.06.02.04.01.07.03.09.06.02.03.03.06.04.1,0,.04,0,.08,0,.12,0,.04,0,.09-.02.13Zm-.29,0s.04,0,.06,0c.02,0,.04.01.07.03,0,0-.01-.02,0-.03,0,0,0-.01,0-.02,0,0,0-.01,0-.02,0-.02,0-.03,0-.05s0-.04,0-.05-.01-.03-.02-.04c-.01,0-.03-.02-.05-.02-.06,0-.12.02-.19.07-.06.05-.13.1-.19.17-.06.07-.11.14-.16.22-.05.08-.09.15-.12.21,0,.02-.02.04-.02.07,0,.03-.01.05-.02.08,0,.02,0,.04,0,.05s0,.03.01.04.02.02.03.02c.02,0,.04,0,.06,0,.02,0,.06-.03.09-.06s.08-.07.12-.11.08-.09.12-.13c.04-.05.07-.09.1-.13.02-.05.05-.1.07-.14.02-.05.03-.09.04-.12v-.04Z"/>
    <path class="cls-1" d="m10.5,2.45s.05-.01.09,0c.03.01.06.04.09.07.03.03.05.07.06.11.01.04.01.08,0,.12,0,.02-.03.05-.05.09-.02.04-.05.08-.08.14-.04.07-.08.14-.12.22-.04.08-.09.15-.13.22s-.08.13-.1.17-.05.07-.05.08c.03,0,.07-.03.13-.08.06-.05.13-.12.2-.19.07-.08.15-.16.23-.25.08-.09.15-.18.22-.27.07-.09.12-.16.17-.23.05-.07.07-.12.08-.16.01-.02.03-.02.05,0,.02.02.03.04.05.08s.02.07.03.1c0,.04,0,.06-.01.08-.04.06-.1.12-.17.21-.07.08-.14.17-.22.26-.08.09-.16.18-.24.27-.09.09-.17.17-.25.24s-.17.13-.24.17c-.08.04-.15.06-.21.06-.05,0-.09-.02-.12-.06-.03-.04-.03-.1-.02-.17,0,0,0,0,0-.01s0,0,0-.01c-.04.04-.07.08-.11.11-.02.01-.03.03-.06.04-.02.02-.05.03-.08.04-.03.01-.06.02-.09.03s-.06.01-.09.01c-.07,0-.12-.03-.14-.09s-.03-.13-.02-.21c0-.02,0-.04.01-.06,0-.02,0-.04.02-.06.01-.04.03-.08.05-.12.02-.05.04-.1.07-.15.02-.05.05-.1.08-.16s.05-.11.08-.16c.04-.08.08-.16.12-.24.04-.08.06-.14.09-.19l.03-.03s.05-.01.09,0c.03.01.06.04.09.07.03.03.05.07.06.11.01.04.01.08,0,.12,0,.01-.02.04-.04.07-.02.03-.04.06-.06.1h0c-.03.05-.07.11-.11.18-.04.07-.08.13-.11.2-.03.07-.06.13-.09.19-.03.06-.04.11-.05.14v.02s.01,0,.01,0c.05-.02.1-.05.15-.1.05-.04.1-.1.15-.16s.1-.12.14-.18.09-.12.13-.18h0s.02-.03.02-.03c0,0,.01-.02.02-.03h0c.05-.1.1-.19.14-.27.04-.08.07-.15.1-.21l.03-.03Z"/>
    <path class="cls-1" d="m12.24,2.86s0,.02-.02.02-.02,0-.04.01c-.01,0-.03,0-.05,0s-.03,0-.04,0c.02.01.04.03.06.05.02.02.04.04.05.07.01.02.02.05.03.07,0,.02,0,.05,0,.07,0,.01-.01.02-.02.04,0,.01-.02.03-.02.04-.02.03-.04.06-.06.1-.02.04-.04.07-.05.11-.02.04-.03.07-.04.1-.01.03-.02.06-.02.08,0,0,0,0,0,0,0,0,0,0,0,0h.02s.1-.04.14-.08c.05-.04.09-.08.13-.13.04-.05.09-.1.13-.16.04-.06.08-.11.12-.16.01-.01.02-.03.03-.04,0,0,.01-.02.02-.03,0,0,.02,0,.04,0s.04.01.05.02.03.03.04.04,0,.03,0,.04l-.07.1h0c-.07.1-.14.2-.22.29s-.16.18-.26.26c-.01.01-.03.03-.06.04-.02.02-.05.03-.07.04-.03.01-.06.03-.09.03-.03,0-.06.01-.1.01-.08,0-.13-.04-.17-.08-.03-.05-.04-.11-.04-.19-.07.07-.15.13-.23.18-.08.05-.15.08-.22.08-.06,0-.11-.02-.15-.05-.04-.03-.06-.06-.08-.1-.02-.04-.03-.08-.03-.13,0-.04,0-.09,0-.13,0-.04.01-.07.02-.09.02-.06.04-.13.08-.2.04-.07.08-.14.14-.22.05-.07.11-.14.17-.21s.13-.13.2-.18.14-.09.22-.13.15-.05.22-.05c.02,0,.04,0,.06,0,.02,0,.04,0,.06.02.04.01.07.03.09.06.02.03.03.06.04.1,0,.04,0,.08,0,.12,0,.04,0,.09-.02.13Zm-.29,0s.04,0,.06,0c.02,0,.04.01.07.03,0,0-.01-.02,0-.03,0,0,0-.01,0-.02,0,0,0-.01,0-.02,0-.02,0-.03,0-.05s0-.04,0-.05-.01-.03-.02-.04c-.01,0-.03-.02-.05-.02-.06,0-.12.02-.19.07-.06.05-.13.1-.19.17-.06.07-.11.14-.16.22-.05.08-.09.15-.12.21,0,.02-.02.04-.02.07,0,.03-.01.05-.02.08,0,.02,0,.04,0,.05s0,.03.01.04.02.02.03.02c.02,0,.04,0,.06,0,.02,0,.06-.03.09-.06s.08-.07.12-.11.08-.09.12-.13c.04-.05.07-.09.1-.13.02-.05.05-.1.07-.14.02-.05.03-.09.04-.12v-.04Z"/>
    <path class="cls-1" d="m12.93,2.45s.05,0,.09,0c.03.02.06.04.09.07.02.03.04.07.05.11,0,.04,0,.08-.02.12,0,0,0,0,0,0,0,0-.02.02-.03.04-.01.02-.02.04-.04.06-.02.02-.03.04-.04.06-.03.04-.06.09-.1.14-.04.05-.07.1-.11.16s-.07.11-.1.16c-.03.05-.06.1-.08.14-.02.04-.04.07-.05.09,0,.02,0,.04,0,.04h.02c.05-.02.1-.04.16-.08.05-.04.1-.08.15-.13s.09-.1.14-.15c.04-.05.09-.11.13-.16l.04-.06s.02-.01.04,0c.02,0,.03.02.05.03.01.01.02.03.03.05,0,.02,0,.03,0,.04h0c-.08.1-.17.21-.28.32-.1.11-.21.21-.31.29-.02.01-.04.02-.06.04s-.05.03-.08.04c-.03.01-.06.02-.09.03s-.06.01-.09.01c-.06,0-.11-.03-.13-.08-.02-.05-.03-.11-.02-.18.01-.06.03-.11.05-.17h0c.03-.08.08-.17.14-.28.06-.11.13-.22.19-.33.04-.07.08-.15.12-.22.04-.07.07-.13.1-.19l.03-.03Zm.38-.76s.04,0,.07.03c.03.03.05.06.08.09.02.03.04.07.06.1.02.03.02.06.02.07-.02.05-.04.09-.06.13-.02.04-.04.07-.07.11s-.05.08-.07.12c-.02.04-.05.08-.07.14-.02,0-.04-.02-.06-.04-.02-.02-.04-.04-.06-.07-.02-.03-.03-.05-.04-.08s-.01-.05-.01-.07c0-.03.02-.07.03-.11.01-.04.03-.08.05-.12s.04-.09.05-.13c.02-.04.03-.09.04-.13l.05-.05Z"/>
    <path class="cls-1" d="m13.58,2.45s.05,0,.09,0c.03.02.06.04.09.07.02.03.04.07.05.11,0,.04,0,.08-.02.12,0,0,0,0,0,0,0,0-.02.02-.03.04-.01.02-.02.04-.04.06-.02.02-.03.04-.04.06-.03.04-.06.09-.1.14-.04.05-.07.1-.11.16s-.07.11-.1.16c-.03.05-.06.1-.08.14-.02.04-.04.07-.05.09,0,.02,0,.04,0,.04h.02c.05-.02.1-.04.16-.08.05-.04.1-.08.15-.13s.09-.1.14-.15c.04-.05.09-.11.13-.16l.04-.06s.02-.01.04,0c.02,0,.03.02.05.03.01.01.02.03.03.05,0,.02,0,.03,0,.04h0c-.08.1-.17.21-.28.32-.1.11-.21.21-.31.29-.02.01-.04.02-.06.04s-.05.03-.08.04c-.03.01-.06.02-.09.03s-.06.01-.09.01c-.06,0-.11-.03-.13-.08-.02-.05-.03-.11-.02-.18.01-.06.03-.11.05-.17h0c.03-.08.08-.17.14-.28.06-.11.13-.22.19-.33.04-.07.08-.15.12-.22.04-.07.07-.13.1-.19l.03-.03Zm.38-.76s.04,0,.07.03c.03.03.05.06.08.09.02.03.04.07.06.1.02.03.02.06.02.07-.02.05-.04.09-.06.13-.02.04-.04.07-.07.11s-.05.08-.07.12c-.02.04-.05.08-.07.14-.02,0-.04-.02-.06-.04-.02-.02-.04-.04-.06-.07-.02-.03-.03-.05-.04-.08s-.01-.05-.01-.07c0-.03.02-.07.03-.11.01-.04.03-.08.05-.12s.04-.09.05-.13c.02-.04.03-.09.04-.13l.05-.05Z"/>
    <path class="cls-1" d="m14.31,2.87c.12-.25.27-.46.44-.65.17-.18.36-.34.55-.46.2-.12.4-.22.6-.28.21-.07.41-.1.59-.12.05,0,.09.01.12.03s.05.05.06.08c.01.03.02.06.01.09,0,.03-.01.05-.03.06-.01.02-.04.06-.08.12-.04.06-.09.13-.14.22-.05.09-.12.18-.18.29-.07.11-.13.22-.2.33s-.14.23-.2.35c-.07.12-.12.23-.18.35-.05.11-.1.22-.14.31-.04.1-.06.18-.07.26-.01.08,0,.14.01.17,0,0,.01,0,.02.01,0,0,.02,0,.02,0,.02,0,.04,0,.07-.02.03-.01.05-.02.06-.03.03-.02.06-.03.08-.03.02,0,.02.02.02.05,0,.05,0,.09-.03.14-.02.04-.04.07-.07.09-.07.04-.13.07-.19.07-.03,0-.06,0-.09-.02-.03-.01-.06-.03-.09-.05-.06-.05-.1-.11-.11-.19-.01-.08-.01-.18,0-.28.02-.1.04-.21.08-.32s.09-.24.14-.36c.06-.12.12-.25.18-.37.07-.13.13-.25.2-.37.07-.12.13-.23.2-.33s.12-.2.18-.28h0s.03-.04.03-.04c0,0-.01,0-.02,0-.12.02-.25.07-.37.13-.12.06-.24.13-.35.21-.11.08-.22.17-.32.27-.1.1-.19.2-.27.3-.08.1-.15.2-.2.3-.06.1-.09.19-.12.27-.04,0-.08,0-.12-.03-.04-.02-.07-.04-.09-.06-.03-.03-.04-.06-.05-.09,0-.04,0-.07.02-.12Z"/>
    <path class="cls-1" d="m15.63,3.54c.01-.07.04-.14.08-.2.04-.07.09-.12.14-.16l.07-.09c.06-.08.11-.16.17-.23.06-.08.12-.15.18-.23.01-.01.03-.03.04-.04,0-.01.02-.03.03-.04.03-.04.07-.09.12-.14.05-.05.11-.11.19-.18.02.01.05.03.08.06.03.02.06.05.08.08.02.03.04.06.04.09,0,.03-.01.06-.05.08h0s-.06.05-.07.06-.03.03-.05.06l-.04.05c-.04.06-.08.12-.1.18s-.04.13-.05.19c0,.03-.01.07-.01.1,0,.04,0,.07,0,.11l-.02.15c0,.07-.03.14-.06.2s-.07.11-.12.16-.1.08-.16.1c-.06.02-.12.03-.18.03-.06,0-.12-.02-.16-.04-.04-.02-.08-.05-.11-.09-.03-.03-.04-.07-.05-.12,0-.04,0-.09,0-.14Zm.55-.46s0-.03,0-.04c0-.01,0-.03,0-.04l-.1.14h0s0,.04,0,.07c0,.03,0,.07,0,.1,0,.04,0,.07-.01.1,0,.03-.02.06-.04.07,0-.03-.03-.04-.05-.04-.02,0-.05,0-.07.01-.03.01-.05.03-.07.05-.02.02-.03.04-.04.06,0,0,0,.02,0,.03,0,.01,0,.02,0,.04.01.03.03.05.05.06.02.01.05.02.07.02.02,0,.05,0,.07-.01.02-.01.04-.03.05-.05s.03-.04.04-.07.02-.05.02-.08c0-.06.01-.12.01-.19,0-.04,0-.07,0-.11,0-.04,0-.08.02-.12Z"/>
    <path class="cls-1" d="m17.38,2.55s-.05.07-.08.13c-.03.05-.07.12-.11.18-.04.07-.08.14-.12.21s-.08.14-.12.21-.07.13-.09.19c-.02.06-.04.1-.04.14,0,0,0,0,0,.01,0,0,0,0,0,0h.02s.09-.04.14-.08c.05-.04.09-.08.13-.13s.08-.1.12-.15c.04-.05.08-.11.11-.16h0s.02-.03.03-.04.02-.03.03-.04c0,0,.02-.01.03,0s.03.01.05.02.03.03.04.04c0,.02,0,.03,0,.04l-.08.11c-.07.09-.14.19-.22.29-.08.1-.16.18-.25.25-.02.01-.03.03-.06.04-.02.02-.05.03-.08.04-.03.01-.06.02-.09.03s-.06.01-.09.01c-.04,0-.07-.01-.09-.03-.02-.02-.04-.04-.05-.07-.01-.03-.02-.06-.02-.09,0-.04,0-.08,0-.12,0-.02,0-.04.01-.06s.01-.04.02-.06c.05-.17.12-.33.21-.48.09-.16.18-.31.27-.46l.13-.21c.04-.06.08-.13.11-.19.04-.06.07-.13.11-.19.03-.06.06-.12.09-.18.03-.06.05-.11.07-.16.03-.01.06-.01.09,0,.04.01.07.04.1.07.03.03.05.06.07.1.01.04.01.08,0,.11-.01.02-.03.06-.06.11-.03.05-.06.1-.09.16-.04.06-.07.12-.11.18-.04.06-.08.12-.11.17l-.02.03Z"/>
    <path class="cls-1" d="m18.47,2.86s0,.02-.02.02-.02,0-.04.01c-.01,0-.03,0-.05,0s-.03,0-.04,0c.02.01.04.03.06.05.02.02.04.04.05.07.01.02.02.05.03.07,0,.02,0,.05,0,.07,0,.01-.01.02-.02.04,0,.01-.02.03-.02.04-.02.03-.04.06-.06.1-.02.04-.04.07-.05.11-.02.04-.03.07-.04.1-.01.03-.02.06-.02.08,0,0,0,0,0,0,0,0,0,0,0,0h.02s.1-.04.14-.08c.05-.04.09-.08.13-.13.04-.05.09-.1.13-.16.04-.06.08-.11.12-.16.01-.01.02-.03.03-.04,0,0,.01-.02.02-.03,0,0,.02,0,.04,0,.02,0,.04.01.05.02s.03.03.04.04,0,.03,0,.04l-.07.1h0c-.07.1-.14.2-.22.29-.08.09-.16.18-.26.26-.01.01-.03.03-.06.04-.02.02-.05.03-.07.04-.03.01-.06.03-.09.03-.03,0-.06.01-.1.01-.08,0-.13-.04-.17-.08-.03-.05-.04-.11-.04-.19-.07.07-.15.13-.23.18-.08.05-.15.08-.22.08-.06,0-.11-.02-.15-.05-.04-.03-.06-.06-.08-.1-.02-.04-.03-.08-.03-.13,0-.04,0-.09,0-.13,0-.04.01-.07.02-.09.02-.06.04-.13.08-.2s.08-.14.14-.22c.05-.07.11-.14.17-.21s.13-.13.2-.18c.07-.05.14-.09.22-.13s.15-.05.22-.05c.02,0,.04,0,.06,0,.02,0,.04,0,.06.02.04.01.07.03.09.06.02.03.03.06.04.1,0,.04,0,.08,0,.12,0,.04,0,.09-.02.13Zm-.29,0s.04,0,.06,0,.04.01.07.03c0,0-.01-.02,0-.03,0,0,0-.01,0-.02,0,0,0-.01,0-.02,0-.02,0-.03,0-.05s0-.04,0-.05-.01-.03-.02-.04-.03-.02-.05-.02c-.06,0-.12.02-.19.07-.06.05-.13.1-.19.17s-.11.14-.16.22-.09.15-.12.21c0,.02-.02.04-.02.07,0,.03-.01.05-.02.08,0,.02,0,.04,0,.05s0,.03.01.04c0,.01.02.02.03.02.01,0,.04,0,.06,0,.02,0,.06-.03.09-.06s.08-.07.12-.11.08-.09.12-.13c.04-.05.07-.09.1-.13.02-.05.05-.1.07-.14s.04-.09.04-.12v-.04Z"/>
    <path class="cls-1" d="m20.03,3.37s-.07.09-.12.16c-.05.06-.11.12-.17.18-.06.06-.12.11-.19.15-.06.04-.12.06-.18.06-.03,0-.07,0-.1-.02-.03-.01-.06-.03-.08-.06-.02-.03-.03-.06-.04-.1,0-.04,0-.09,0-.15.01-.05.03-.1.04-.15.02-.05.04-.1.06-.15s.05-.11.09-.17.07-.13.11-.21c.02-.03.04-.06.05-.09.01-.03.02-.05.02-.07l-.12.1c-.07.06-.13.12-.19.17s-.12.12-.18.19c-.06.1-.11.21-.15.31-.04.11-.08.21-.11.32,0,.02-.02.03-.05.03-.03,0-.06,0-.09-.02-.03-.01-.06-.03-.08-.05-.02-.02-.03-.04-.03-.06.01-.07.03-.15.06-.22.02-.07.05-.14.08-.21s.06-.14.09-.2c.03-.07.07-.13.1-.2.04-.08.08-.16.12-.23s.07-.15.1-.22c.02,0,.04-.01.07,0,.03,0,.06.02.08.04.03.02.05.04.07.07.02.03.03.06.04.09.07-.06.14-.11.21-.15.07-.04.15-.06.22-.07.02,0,.05.01.07.03s.04.05.06.08c.02.03.03.06.03.1s0,.07,0,.09c-.04.08-.08.16-.13.24s-.08.14-.11.19c-.03.05-.05.09-.07.13-.02.04-.04.08-.06.12-.02.04-.03.08-.05.12-.01.04-.03.08-.04.13,0,0,0,0,.02-.01h0s.11-.07.18-.13.15-.14.23-.24c.02-.03.04-.05.06-.08.02-.03.04-.05.06-.07l.05-.07s.02,0,.04,0c.02,0,.03.01.05.02.02.01.03.03.04.04,0,.02,0,.03,0,.04h0s-.17.23-.17.23h0Z"/>
    <path class="cls-1" d="m21.02,3.34s-.05.09-.07.14c-.02.05-.03.09-.04.12,0,.01,0,.02-.01.03h.02s.1-.04.14-.08.09-.08.13-.13c.04-.05.08-.1.13-.16.04-.06.08-.11.12-.16.01-.01.02-.03.03-.04s.01-.02.02-.03c0,0,.02,0,.04,0,.02,0,.04.01.05.02s.03.03.04.04,0,.03,0,.04l-.07.1h0c-.07.1-.14.2-.22.29-.08.09-.16.18-.26.26-.01.01-.03.03-.06.04s-.05.03-.07.04-.06.03-.09.03c-.03,0-.06.01-.1.01-.08,0-.13-.04-.17-.08-.03-.05-.04-.11-.04-.19-.07.07-.15.13-.22.18-.08.05-.15.08-.22.08-.06,0-.11-.02-.15-.05-.04-.03-.06-.06-.08-.1-.02-.04-.03-.08-.03-.13,0-.04,0-.09,0-.13,0-.04.01-.07.02-.09.02-.06.04-.13.08-.2.04-.07.08-.14.14-.22.05-.07.11-.14.17-.21s.13-.13.2-.18c.07-.05.14-.09.22-.13s.15-.05.22-.05c.02,0,.04,0,.06,0,.02,0,.04,0,.06.02.04.02.08.04.1.08l.02-.03.09-.14c.04-.06.08-.12.12-.19.04-.07.08-.13.11-.19.03-.06.06-.12.09-.18s.05-.11.07-.16c.03-.01.06-.01.09,0,.04.01.07.04.1.06.03.03.05.06.07.1.01.04.01.08,0,.11-.01.02-.03.05-.05.1s-.06.1-.09.16c-.04.06-.07.12-.11.18-.04.06-.08.12-.12.18l-.09.14h0c-.07.1-.14.21-.21.32s-.13.23-.2.36h0Zm-.7.26s.05-.03.09-.06.08-.07.12-.11c.04-.04.08-.09.12-.13s.08-.09.1-.13l.04-.08c.06-.11.12-.22.19-.33,0-.02,0-.05-.02-.06-.01-.02-.03-.03-.06-.03-.06,0-.12.02-.19.07-.06.05-.13.1-.19.17-.06.07-.11.14-.16.22-.05.08-.09.15-.12.21,0,.02-.02.04-.02.07,0,.03-.01.05-.02.08,0,.02,0,.04,0,.05s0,.03.01.04c0,.01.02.02.03.02.02,0,.04,0,.06,0Z"/>
    <path class="cls-1" d="m21.15,3.54c.01-.07.04-.14.08-.2.04-.07.09-.12.14-.16l.07-.09c.06-.08.11-.16.17-.23.06-.08.12-.15.18-.23.01-.01.03-.03.04-.04,0-.01.02-.03.03-.04.03-.04.07-.09.12-.14.05-.05.11-.11.19-.18.02.01.05.03.08.06.03.02.06.05.08.08.02.03.04.06.04.09,0,.03-.01.06-.05.08h0s-.06.05-.07.06-.03.03-.05.06l-.04.05c-.04.06-.08.12-.1.18s-.04.13-.05.19c0,.03-.01.07-.01.1,0,.04,0,.07,0,.11l-.02.15c0,.07-.03.14-.06.2s-.07.11-.12.16-.1.08-.16.1c-.06.02-.12.03-.18.03-.06,0-.12-.02-.16-.04-.04-.02-.08-.05-.11-.09-.03-.03-.04-.07-.05-.12,0-.04,0-.09,0-.14Zm.55-.46s0-.03,0-.04c0-.01,0-.03,0-.04l-.1.14h0s0,.04,0,.07c0,.03,0,.07,0,.1,0,.04,0,.07-.01.1,0,.03-.02.06-.04.07,0-.03-.03-.04-.05-.04-.02,0-.05,0-.07.01-.03.01-.05.03-.07.05-.02.02-.03.04-.04.06,0,0,0,.02,0,.03,0,.01,0,.02,0,.04.01.03.03.05.05.06.02.01.05.02.07.02.02,0,.05,0,.07-.01.02-.01.04-.03.05-.05s.03-.04.04-.07.02-.05.02-.08c0-.06.01-.12.01-.19,0-.04,0-.07,0-.11,0-.04,0-.08.02-.12Z"/>
  </g>
</svg>