<?xml version="1.0" encoding="UTF-8"?>
<svg id="Logo" xmlns="http://www.w3.org/2000/svg" viewBox="0 0 16.75 16.69">
  <defs>
    <style>
      .cls-1 {
        fill: #b6174b;
      }

      .cls-1, .cls-2, .cls-3 {
        stroke-width: 0px;
      }

      .cls-2 {
        fill: #fff;
      }

      .cls-3 {
        fill: #231f20;
      }
    </style>
  </defs>
  <g id="Image">
    <path id="Circle" class="cls-1" d="m8.38,0C4.93,0,2.14,2.79,2.14,6.23s2.79,6.23,6.23,6.23,6.23-2.79,6.23-6.23S11.82,0,8.38,0Z"/>
    <g id="Water">
      <path class="cls-2" d="m12,9.16v.72h-.72c-.5,0-1-.12-1.45-.36-.91.47-2,.47-2.91,0-.46.24-.95.36-1.45.36h-.72v-.72h.72c.5,0,1.01-.17,1.45-.49.89.62,2.02.62,2.91,0,.44.32.95.49,1.45.49h.72Z"/>
    </g>
    <g id="Sand_and_Trunk" data-name="Sand and Trunk">
      <path class="cls-2" d="m11.57,8.8h-.29c-.43,0-.86-.15-1.24-.42l-.21-.15-.21.15c-.38.27-.8.39-1.24.39s-.87-.13-1.25-.39l-.2-.15-.21.15c-.39.28-.82.42-1.25.42h-.28c.2-.53.86-1.46,3.19-1.46.72,0,1.09.09,1.09.09.25-.5.66-1.62.36-3.06l.39.26c.12.52.34,1.53-.09,2.95.95.31,1.31.85,1.45,1.22Z"/>
    </g>
    <g id="Leaves">
      <path class="cls-2" d="m10.89,4.08c.43.69.34,1.56-.17,2.16.21-.53.19-1.15-.15-1.67-.03-.03-.04-.06-.06-.09-.14-.21-.34-.39-.55-.5-.73.24-1.27.93-1.27,1.73,0,.19.03.38.07.55-.22-.3-.34-.67-.34-1.06,0-.61.29-1.14.74-1.47-.38-.03-.77.06-1.11.28-.17.09-.29.22-.41.35.14-.34.39-.63.72-.85.39-.24.82-.33,1.24-.26-.11-.15-.24-.28-.39-.4-.16-.11-.31-.19-.49-.26.37,0,.74.13,1.06.37.17.12.28.27.4.42h.06c.82,0,1.51.54,1.74,1.29-.29-.4-.73-.69-1.25-.75.05.05.08.11.13.17Z"/>
    </g>
  </g>
  <g id="Text">
    <path class="cls-3" d="m.28,14.95s-.02.03-.05.03-.06,0-.09,0-.06-.02-.09-.03c-.03-.02-.05-.03-.05-.04.02-.13.06-.25.1-.35.05-.1.1-.19.17-.27.06-.08.13-.15.21-.2.07-.06.15-.11.23-.15.08-.04.15-.08.23-.1.07-.03.14-.05.21-.07.11-.03.22-.06.34-.07.12-.01.23-.02.34-.02.1,0,.19,0,.29,0s.19.01.28.02c.08,0,.16.01.23.02.08,0,.15,0,.22,0,.09,0,.17,0,.24-.02.07-.01.14-.03.2-.06.01,0,.02,0,.02.04,0,.03,0,.07-.02.11,0,.04-.02.08-.04.12-.01.04-.03.06-.04.07-.07.03-.15.05-.23.06-.08.01-.16.02-.24.02-.09,0-.18,0-.28-.01-.09-.01-.19-.02-.29-.03-.11-.01-.21-.02-.32-.03s-.21-.02-.32-.02c-.07,0-.13,0-.2,0s-.13.02-.2.03c-.09.02-.18.05-.27.09-.09.04-.17.1-.25.18-.08.07-.14.17-.2.28-.06.11-.11.25-.14.41Zm1.28-.98s.04-.01.07,0c.03.01.07.04.1.07.03.03.06.07.07.11.02.04.02.08,0,.12-.1.11-.2.23-.3.36s-.2.26-.3.4c-.1.14-.19.27-.27.41s-.17.27-.24.4-.13.25-.18.37-.09.22-.12.31c0,.01-.02.01-.04,0-.02-.02-.04-.04-.07-.07-.02-.03-.04-.06-.06-.09-.02-.03-.03-.05-.02-.07.02-.1.06-.21.11-.34.05-.13.12-.26.19-.4s.16-.28.25-.43c.09-.15.18-.29.28-.43.09-.14.19-.27.28-.4.09-.12.18-.24.25-.33Z"/>
    <path class="cls-3" d="m2.19,15.81c-.05.06-.1.11-.15.17-.06.06-.12.11-.18.16-.06.05-.13.09-.19.12-.07.03-.13.04-.2.04-.04,0-.07-.01-.1-.03-.03-.02-.05-.04-.06-.07-.01-.03-.02-.06-.03-.09,0-.03,0-.07,0-.11.01-.05.03-.11.05-.15.02-.05.05-.09.07-.14.03-.04.06-.09.09-.13s.07-.08.1-.13l.06-.07h0s.07-.08.07-.08c.01-.02.03-.03.05-.05.02-.01.06-.03.11-.04-.02,0-.04,0-.06.01s-.03,0-.04,0c-.02,0-.04,0-.06.01s-.05,0-.07,0h-.02c-.04.06-.09.11-.13.16-.04.05-.08.1-.11.15h0s-.02,0-.03,0c-.02,0-.03-.01-.05-.03-.01-.01-.03-.03-.04-.04,0-.02,0-.03,0-.04h0c.05-.06.09-.11.12-.16.03-.05.06-.09.09-.12-.01-.03-.02-.06,0-.1,0-.05.03-.1.05-.14.03-.04.06-.09.1-.14.01-.02.03-.04.05-.07s.03-.06.05-.1c.02.01.05.03.07.04.02.01.04.03.06.05.02.02.03.04.04.06,0,.02.01.05,0,.08,0,.02,0,.03-.01.05,0,.02-.01.04-.03.06l-.1.11s0,.01.01,0c.02,0,.04-.02.07-.04.03-.02.07-.04.11-.06.04-.02.08-.05.12-.07.04-.02.07-.05.1-.07.03-.02.05-.04.06-.05.01,0,.02,0,.04.02.01,0,.03.02.04.03.01.01.03.02.04.03.01.01.02.02.02.02.01.03.01.06,0,.1s-.03.08-.07.13c-.03.05-.07.09-.11.15-.04.05-.09.1-.14.16-.03.03-.05.06-.08.09-.03.03-.05.06-.08.09-.02.02-.04.05-.07.08-.02.03-.05.06-.07.09-.02.03-.04.06-.06.09s-.03.05-.03.07c0,0,0,.01.02.01.02,0,.04,0,.07-.02.03-.01.06-.03.1-.06.03-.03.07-.06.11-.09s.07-.07.1-.11h0c.04-.05.08-.1.12-.15.04-.05.07-.09.09-.13,0,0,.02,0,.04,0s.03.02.05.03c.01.01.03.03.03.05,0,.02,0,.03,0,.04h0s-.09.12-.09.12l-.12.16h0Z"/>
    <path class="cls-3" d="m3.21,15.28c-.1.15-.21.27-.35.37-.13.1-.28.17-.43.22,0,.04,0,.09,0,.13.01.04.03.06.07.07h0s.07,0,.11-.01c.05-.01.09-.04.15-.07s.11-.08.17-.13c.06-.05.12-.12.18-.19.03-.04.06-.08.09-.12s.06-.08.08-.12c.02-.02.04-.03.06-.03.02,0,.04,0,.06.02.02.01.03.03.03.05,0,.02,0,.05-.02.08l-.06.09c-.05.07-.12.16-.19.25-.07.09-.16.18-.25.26-.06.05-.11.08-.16.11s-.1.04-.15.06c-.04.01-.08.02-.12.02-.04,0-.06,0-.08,0-.13,0-.22-.04-.28-.11-.06-.07-.08-.18-.06-.3.01-.11.05-.22.11-.33.06-.11.14-.22.24-.35.04-.04.08-.09.14-.13.05-.05.11-.09.18-.13.06-.04.13-.07.2-.1.07-.02.14-.04.2-.03.07,0,.12.02.15.07s.05.1.03.18c0,.03-.02.07-.03.1s-.04.07-.07.11h0Zm-.13-.2c-.06.01-.12.04-.17.08-.06.04-.11.09-.16.15-.05.06-.1.12-.14.18-.04.06-.08.12-.11.18.12-.05.22-.11.33-.19.1-.08.19-.18.26-.29h0s.02-.02.02-.04c0-.01,0-.02.01-.03,0-.02,0-.03-.03-.02Z"/>
    <path class="cls-3" d="m4.36,15.25s0,.02-.02.02-.02,0-.04.01c-.01,0-.03,0-.05,0s-.03,0-.04,0c.02.01.04.03.06.05.02.02.04.04.05.07.01.02.02.05.03.07,0,.02,0,.05,0,.07,0,.01-.01.02-.02.04,0,.01-.02.03-.02.04-.02.03-.04.06-.06.1-.02.04-.04.07-.05.11s-.03.07-.04.1-.02.06-.02.08c0,0,0,0,0,0s0,0,0,0h.02s.1-.04.14-.08c.05-.04.09-.08.13-.13.04-.05.09-.1.13-.16.04-.05.08-.11.11-.16.01-.01.02-.02.03-.03,0,0,.01-.02.02-.03,0,0,.02-.01.04,0,.02,0,.04.01.05.02.02.01.03.02.04.04,0,.02,0,.03,0,.04l-.07.1h0c-.07.1-.14.19-.22.29-.08.09-.16.18-.25.26-.01.01-.03.03-.06.04-.02.02-.05.03-.07.04s-.06.03-.09.03-.06.01-.1.01c-.08,0-.13-.03-.17-.08-.03-.05-.04-.11-.04-.18-.07.07-.15.13-.22.18-.08.05-.15.08-.22.08-.06,0-.11-.02-.15-.05-.04-.03-.06-.06-.08-.1s-.03-.08-.03-.13c0-.05,0-.09,0-.13,0-.04.01-.06.02-.09.02-.06.04-.13.08-.2.04-.07.08-.14.14-.22.05-.07.11-.14.17-.21.06-.07.13-.13.2-.18.07-.05.14-.09.22-.13s.15-.05.22-.05c.02,0,.04,0,.06,0,.02,0,.04,0,.06.02.04.01.07.03.09.06.02.03.03.06.04.1,0,.04,0,.08,0,.12,0,.04,0,.09-.02.13Zm-.29,0s.04,0,.06,0c.02,0,.04.01.07.03,0,0-.01-.02,0-.03,0,0,0-.01,0-.02,0,0,0-.01,0-.02,0-.02,0-.03,0-.05s0-.03,0-.05c0-.02-.01-.03-.02-.04-.01-.01-.03-.02-.05-.02-.06,0-.12.02-.19.07-.06.04-.13.1-.18.17-.06.07-.11.14-.16.22-.05.08-.09.15-.11.21,0,.02-.02.04-.02.07,0,.03-.01.05-.02.08,0,.02,0,.04,0,.05s0,.03.01.04.02.02.03.02c.01,0,.04,0,.06,0,.02,0,.06-.02.09-.06s.08-.07.12-.11.08-.09.12-.13c.04-.05.07-.09.1-.13.02-.05.05-.1.07-.14s.03-.09.04-.12v-.04Z"/>
    <path class="cls-3" d="m4.37,15.93c.01-.07.04-.14.08-.2.04-.07.09-.12.14-.16l.07-.09c.06-.08.11-.16.17-.23.06-.08.12-.15.18-.22.01-.01.02-.03.03-.04,0-.01.02-.03.03-.04.03-.04.07-.09.12-.14.05-.05.11-.11.19-.18.02.01.05.03.08.06.03.02.06.05.08.08s.04.06.04.09-.01.06-.05.08h0s-.06.05-.07.06c-.01.02-.03.03-.05.06l-.04.05c-.04.06-.08.12-.1.18s-.04.13-.05.19c0,.03-.01.07-.02.11,0,.04,0,.07,0,.11l-.02.15c-.01.07-.03.14-.06.2-.03.06-.07.11-.12.16-.05.04-.1.08-.16.1-.06.02-.12.03-.18.03-.06,0-.12-.02-.16-.04s-.08-.05-.1-.09c-.03-.03-.04-.07-.05-.12s0-.09,0-.14Zm.55-.46s0-.03,0-.04c0-.01,0-.03.01-.04l-.1.14h0s0,.04,0,.07c0,.03,0,.07,0,.1s0,.07-.01.1c0,.03-.02.06-.04.07-.01-.03-.03-.04-.05-.05-.02,0-.05,0-.07.01-.02.01-.05.03-.07.05-.02.02-.03.04-.04.06,0,0,0,.02,0,.03,0,.01,0,.02,0,.04.01.03.03.05.05.06.02.01.05.02.07.02.02,0,.05,0,.07-.01.02-.01.04-.03.05-.05s.03-.04.04-.07.02-.05.02-.08c0-.06.01-.12.02-.19,0-.03,0-.07,0-.11,0-.04,0-.08.02-.12Z"/>
    <path class="cls-3" d="m6.41,14.84s.05,0,.09,0,.06.04.09.07.05.07.06.11.01.08,0,.12c0,.01-.02.03-.03.06-.02.03-.03.06-.05.09h0s-.07.11-.11.18c-.04.07-.08.14-.11.2s-.07.13-.09.19c-.03.06-.04.11-.05.14v.02s.02,0,.02,0c.05-.02.09-.04.14-.08.05-.04.09-.08.14-.13.04-.05.09-.1.13-.16.04-.05.08-.11.12-.16l.05-.07s.04-.03.06-.03c.02,0,.04,0,.06.02.02.01.03.03.03.05s0,.05-.02.08l-.07.09c-.07.09-.14.19-.22.29-.08.1-.16.18-.25.26-.02.01-.03.03-.06.04-.02.02-.05.03-.08.04-.03.01-.06.02-.09.03s-.06.01-.09.01c-.07,0-.12-.03-.15-.09-.02-.06-.03-.13-.02-.21h0s-.06.06-.09.09-.06.06-.09.08c-.02.01-.03.03-.06.04-.02.02-.05.03-.08.04-.03.01-.06.02-.09.03s-.06.01-.09.01c-.07,0-.12-.03-.14-.09-.02-.06-.03-.13-.02-.21,0-.02,0-.04.01-.06,0-.02,0-.04.02-.06.01-.04.03-.08.05-.12.02-.05.04-.09.07-.15.02-.05.05-.1.08-.15.03-.05.05-.11.08-.16.04-.08.08-.16.12-.24s.06-.14.09-.19l.03-.03s.05,0,.09,0,.06.04.09.07.05.07.06.11c.01.04,0,.08,0,.12,0,.02-.02.04-.04.07-.02.03-.04.06-.06.1h0c-.03.05-.07.11-.11.18-.04.07-.08.13-.11.2s-.06.13-.09.19c-.03.06-.04.11-.05.14v.02s.01,0,.01,0c.05-.02.09-.04.14-.08.05-.04.09-.08.13-.13.04-.05.08-.1.12-.15.04-.05.08-.11.11-.16h0s.01-.02.02-.02c0,0,.01-.02.02-.02l.07-.14c.04-.09.09-.17.12-.25.04-.08.07-.15.09-.2l.03-.03Z"/>
    <path class="cls-3" d="m7.66,15.81c-.05.06-.1.11-.15.17-.06.06-.12.11-.18.16-.06.05-.13.09-.19.12-.07.03-.13.04-.2.04-.04,0-.07-.01-.1-.03-.03-.02-.05-.04-.06-.07-.01-.03-.02-.06-.03-.09s0-.07,0-.11c.01-.05.03-.11.05-.15.02-.05.05-.09.08-.14.03-.04.06-.09.09-.13s.07-.08.1-.13l.06-.07h0s.07-.08.07-.08c.01-.02.03-.03.05-.05.02-.01.06-.03.11-.04-.02,0-.04,0-.06.01-.01,0-.03,0-.04,0-.02,0-.04,0-.06.01s-.05,0-.07,0h-.02c-.04.06-.09.11-.13.16-.04.05-.08.1-.11.15h0s-.02,0-.03,0c-.02,0-.03-.01-.05-.03-.02-.01-.03-.03-.04-.04,0-.02,0-.03,0-.04h0c.05-.06.09-.11.12-.16.03-.05.06-.09.09-.12-.01-.03-.02-.06,0-.1,0-.05.03-.1.05-.14.03-.04.06-.09.1-.14.02-.02.03-.04.05-.07.02-.03.04-.06.05-.1.02.01.05.03.07.04.02.01.04.03.06.05.02.02.03.04.04.06s0,.05,0,.08c0,.02,0,.03-.01.05,0,.02-.01.04-.03.06l-.1.11s0,.01.01,0c.02,0,.04-.02.07-.04.03-.02.07-.04.11-.06.04-.02.08-.05.12-.07.04-.02.07-.05.1-.07.03-.02.05-.04.06-.05,0,0,.02,0,.04.02.01,0,.03.02.04.03.01.01.03.02.04.03.01.01.02.02.02.02.01.03.01.06,0,.1-.01.04-.04.08-.07.13s-.07.09-.11.15c-.04.05-.09.1-.14.16-.03.03-.06.06-.08.09-.03.03-.05.06-.08.09-.02.02-.04.05-.07.08-.02.03-.05.06-.07.09-.02.03-.04.06-.06.09-.02.03-.03.05-.03.07,0,0,0,.01.02.01.02,0,.04,0,.07-.02.03-.01.06-.03.1-.06.03-.03.07-.06.11-.09s.07-.07.1-.11h0c.04-.05.08-.1.12-.15.04-.05.07-.09.09-.13,0,0,.02,0,.04,0,.02,0,.03.02.05.03.02.01.03.03.03.05,0,.02,0,.03,0,.04h0s-.09.12-.09.12l-.12.16h0Z"/>
    <path class="cls-3" d="m8.68,15.28c-.1.15-.21.27-.35.37-.13.1-.28.17-.43.22,0,.04,0,.09,0,.13.01.04.04.06.07.07h0s.07,0,.11-.01c.04-.01.09-.04.15-.07s.11-.08.17-.13c.06-.05.12-.12.18-.19.03-.04.06-.08.09-.12s.06-.08.08-.12c.02-.02.04-.03.06-.03s.04,0,.06.02c.02.01.03.03.03.05,0,.02,0,.05-.02.08l-.06.09c-.05.07-.12.16-.19.25-.08.09-.16.18-.26.26-.06.05-.11.08-.16.11-.05.03-.1.04-.15.06-.04.01-.08.02-.12.02s-.06,0-.08,0c-.13,0-.22-.04-.28-.11-.06-.07-.08-.18-.06-.3.01-.11.05-.22.11-.33s.14-.22.24-.35c.04-.04.08-.09.14-.13.05-.05.11-.09.18-.13s.13-.07.2-.1c.07-.02.14-.04.2-.03.07,0,.12.02.15.07.03.04.04.1.03.18,0,.03-.02.07-.03.1-.02.03-.04.07-.07.11h0Zm-.13-.2c-.06.01-.12.04-.17.08-.06.04-.11.09-.16.15-.05.06-.1.12-.14.18-.04.06-.08.12-.11.18.12-.05.23-.11.33-.19.1-.08.19-.18.26-.29h0s.02-.02.02-.04c0-.01,0-.02.01-.03,0-.02,0-.03-.03-.02Z"/>
    <path class="cls-3" d="m9.18,15.27c.12-.25.26-.46.44-.65.17-.18.35-.34.55-.46s.4-.22.6-.28c.21-.06.4-.1.59-.12.05,0,.09.01.12.03.03.02.05.05.06.08.01.03.02.06.01.09,0,.03-.01.05-.03.06-.01.02-.04.06-.08.12-.04.06-.09.13-.14.22-.05.09-.11.18-.18.29s-.13.22-.2.33c-.07.11-.13.23-.2.35-.07.12-.12.23-.18.34-.05.11-.1.21-.14.31-.04.1-.06.18-.07.26-.01.08,0,.14.01.17,0,0,.01,0,.02.01,0,0,.01,0,.02,0,.02,0,.04,0,.07-.02.03-.01.05-.02.06-.03.03-.02.06-.03.08-.03s.02.02.02.05c0,.05,0,.1-.03.14s-.04.07-.07.09c-.07.04-.13.07-.18.07-.03,0-.06,0-.09-.02-.03-.01-.06-.03-.09-.05-.06-.05-.1-.11-.11-.19s-.01-.17,0-.28c.02-.1.04-.21.09-.32s.09-.24.14-.36c.06-.12.12-.25.18-.37.07-.13.13-.25.2-.36.07-.12.13-.23.2-.33.06-.1.12-.2.17-.28h0s.03-.04.03-.04c0,0-.01,0-.02,0-.12.02-.25.07-.37.13-.12.06-.24.13-.35.21-.11.08-.22.17-.32.27-.1.1-.19.2-.27.3-.08.1-.14.2-.2.3-.05.1-.09.19-.12.27-.04,0-.08-.01-.12-.03-.04-.02-.07-.04-.09-.06-.03-.03-.04-.06-.05-.09,0-.04,0-.07.02-.12Z"/>
    <path class="cls-3" d="m10.5,15.93c.01-.07.04-.14.08-.2.04-.07.09-.12.14-.16l.07-.09c.06-.08.11-.16.17-.23.06-.08.12-.15.18-.22.01-.01.02-.03.04-.04,0-.01.02-.03.03-.04.03-.04.07-.09.12-.14.04-.05.11-.11.19-.18.02.01.05.03.08.06.03.02.06.05.08.08s.04.06.04.09-.01.06-.05.08h0s-.06.05-.07.06c-.01.02-.03.03-.04.06l-.04.05c-.04.06-.08.12-.1.18-.02.06-.04.13-.05.19,0,.03-.01.07-.01.11s0,.07,0,.11l-.02.15c0,.07-.03.14-.06.2-.03.06-.07.11-.12.16-.05.04-.1.08-.16.1-.06.02-.12.03-.18.03-.06,0-.12-.02-.16-.04-.04-.02-.08-.05-.11-.09s-.04-.07-.05-.12,0-.09,0-.14Zm.55-.46s0-.03,0-.04c0-.01,0-.03,0-.04l-.1.14h0s0,.04,0,.07,0,.07,0,.1,0,.07-.01.1c0,.03-.02.06-.04.07,0-.03-.03-.04-.05-.05-.02,0-.05,0-.07.01-.03.01-.05.03-.07.05-.02.02-.03.04-.04.06,0,0,0,.02,0,.03,0,.01,0,.02,0,.04.01.03.03.05.05.06.02.01.05.02.07.02.02,0,.05,0,.07-.01.02-.01.04-.03.05-.05.01-.02.03-.04.04-.07s.02-.05.02-.08c0-.06.01-.12.01-.19,0-.03,0-.07,0-.11,0-.04,0-.08.02-.12Z"/>
    <path class="cls-3" d="m12.25,14.95s-.05.07-.08.13c-.03.05-.07.11-.11.18-.04.07-.08.14-.12.21-.04.07-.08.14-.12.21-.04.07-.07.13-.09.19s-.04.1-.04.14c0,0,0,0,0,.01s0,0,0,0h.02s.09-.04.14-.08.09-.08.13-.13.08-.1.12-.15c.04-.05.08-.11.11-.16h0s.02-.03.03-.04c.01-.01.02-.03.03-.04,0,0,.02-.01.03,0,.02,0,.03.01.05.02.02.01.03.02.04.04,0,.02.01.03,0,.04l-.08.11c-.07.09-.14.19-.22.28s-.16.18-.25.25c-.02.01-.03.03-.06.04-.02.02-.05.03-.08.04-.03.01-.06.02-.09.03-.03,0-.06.01-.09.01-.04,0-.07-.01-.09-.03-.02-.02-.04-.04-.05-.06-.01-.03-.02-.06-.02-.09,0-.04,0-.07,0-.12,0-.02,0-.04.01-.06,0-.02.01-.04.02-.06.05-.16.12-.32.21-.48.09-.15.18-.31.27-.46l.13-.21c.04-.06.08-.13.11-.19s.07-.13.11-.19.06-.12.09-.18.05-.11.07-.16c.03-.01.06-.01.09,0,.04.01.07.04.1.07s.05.06.07.1.01.08,0,.11c-.01.02-.03.06-.06.11-.03.05-.06.1-.09.16-.04.06-.07.12-.11.18-.04.06-.07.12-.11.17l-.02.03Z"/>
    <path class="cls-3" d="m13.33,15.25s0,.02-.02.02c0,0-.02,0-.04.01-.01,0-.03,0-.04,0s-.03,0-.04,0c.02.01.04.03.06.05.02.02.04.04.05.07.01.02.02.05.03.07,0,.02,0,.05,0,.07,0,.01-.01.02-.02.04,0,.01-.02.03-.02.04-.02.03-.04.06-.06.1-.02.04-.04.07-.05.11-.02.03-.03.07-.04.1-.01.03-.02.06-.02.08,0,0,0,0,0,0,0,0,0,0,0,0h.02s.1-.04.14-.08c.04-.04.09-.08.13-.13.04-.05.09-.1.13-.16.04-.05.08-.11.11-.16.01-.01.02-.02.03-.03,0,0,.01-.02.02-.03,0,0,.02-.01.04,0,.02,0,.04.01.05.02.02.01.03.02.04.04,0,.02,0,.03,0,.04l-.07.1h0c-.07.1-.14.19-.22.29-.08.09-.16.18-.26.26-.02.01-.03.03-.06.04-.02.02-.05.03-.07.04s-.06.03-.09.03c-.03,0-.06.01-.09.01-.08,0-.13-.03-.17-.08-.03-.05-.04-.11-.04-.18-.07.07-.15.13-.22.18-.08.05-.15.08-.22.08-.06,0-.11-.02-.15-.05-.04-.03-.06-.06-.08-.1-.02-.04-.03-.08-.03-.13,0-.05,0-.09,0-.13,0-.04.01-.06.02-.09.02-.06.04-.13.08-.2.04-.07.08-.14.13-.22.05-.07.11-.14.17-.21.06-.07.13-.13.2-.18.07-.05.14-.09.21-.13.07-.03.15-.05.22-.05.02,0,.04,0,.06,0,.02,0,.04,0,.06.02.04.01.07.03.09.06.02.03.03.06.04.1,0,.04,0,.08,0,.12,0,.04,0,.09-.02.13Zm-.29,0s.04,0,.06,0,.04.01.07.03c0,0,0-.02,0-.03,0,0,0-.01,0-.02,0,0,0-.01,0-.02,0-.02,0-.03,0-.05s0-.03,0-.05c0-.02-.01-.03-.02-.04-.01-.01-.03-.02-.05-.02-.06,0-.12.02-.19.07-.06.04-.13.1-.18.17s-.11.14-.16.22c-.05.08-.09.15-.11.21,0,.02-.02.04-.03.07,0,.03-.01.05-.02.08,0,.02,0,.04,0,.05s0,.03,0,.04c0,.01.02.02.03.02.01,0,.04,0,.06,0,.02,0,.05-.02.09-.06s.08-.07.12-.11c.04-.04.08-.09.12-.13.04-.05.08-.09.1-.13.02-.05.05-.1.07-.14s.04-.09.04-.12v-.04Z"/>
    <path class="cls-3" d="m14.88,15.76s-.07.09-.12.15c-.05.06-.11.12-.17.18-.06.06-.12.11-.19.15-.06.04-.12.06-.18.06-.03,0-.07,0-.1-.02-.03-.01-.06-.03-.08-.06-.02-.03-.03-.06-.04-.1,0-.04,0-.09,0-.15.01-.05.03-.1.04-.15.02-.05.04-.1.06-.15.02-.05.05-.11.09-.17.03-.06.07-.13.11-.21.02-.03.04-.06.05-.09.01-.03.02-.05.02-.07l-.12.1c-.07.06-.13.11-.19.17-.06.06-.12.12-.18.19-.06.1-.11.21-.15.31-.04.11-.08.21-.11.32,0,.02-.02.03-.05.02-.03,0-.06,0-.09-.02-.03-.01-.06-.03-.08-.05-.02-.02-.03-.04-.03-.06.01-.07.03-.15.06-.22.02-.07.05-.14.08-.21.03-.07.06-.14.09-.2.03-.07.07-.13.1-.2.04-.08.08-.16.12-.23.04-.07.07-.15.1-.22.02,0,.04-.01.07,0,.03,0,.06.02.08.04.03.02.05.04.07.07.02.03.03.06.04.09.07-.06.14-.11.21-.15s.14-.06.22-.07c.02,0,.05,0,.07.03.02.02.04.05.06.08.02.03.03.06.03.1s0,.06-.01.09c-.04.08-.08.16-.13.24-.04.07-.08.14-.11.19-.03.05-.05.09-.07.13s-.04.08-.06.11-.03.08-.05.12c-.01.04-.03.08-.04.13,0,0,0,0,.02-.02h0s.11-.07.18-.13c.07-.06.15-.14.23-.24.02-.03.04-.05.06-.08.02-.02.04-.05.05-.07l.05-.07s.02-.01.04,0c.02,0,.03.01.05.02.02.01.03.02.04.04,0,.02,0,.03,0,.04h0s-.17.23-.17.23h0Z"/>
    <path class="cls-3" d="m15.87,15.73s-.05.1-.07.14-.03.09-.04.12c0,.01,0,.02-.01.03h.02s.1-.04.14-.08.09-.08.13-.13c.04-.05.09-.1.13-.16.04-.05.08-.11.12-.16.01-.01.02-.02.03-.03s.01-.02.02-.03c0,0,.02-.01.04,0,.02,0,.04.01.05.02.02.01.03.02.04.04,0,.02,0,.03,0,.04l-.07.1h0c-.07.1-.14.19-.22.29-.08.09-.16.18-.26.26-.01.01-.03.03-.05.04-.02.02-.05.03-.07.04-.03.01-.06.03-.09.03s-.06.01-.1.01c-.08,0-.13-.03-.17-.08-.03-.05-.04-.11-.04-.18-.07.07-.15.13-.22.18-.08.05-.15.08-.22.08-.06,0-.11-.02-.15-.05-.04-.03-.06-.06-.08-.1s-.03-.08-.03-.13c0-.05,0-.09,0-.13,0-.04.01-.06.02-.09.02-.06.04-.13.08-.2.04-.07.08-.14.14-.22s.11-.14.17-.21c.06-.07.13-.13.2-.18.07-.05.14-.09.22-.13.07-.03.15-.05.22-.05.02,0,.04,0,.06,0,.02,0,.04,0,.06.02.04.02.08.04.1.08l.02-.03.09-.14c.04-.06.08-.12.12-.19.04-.07.07-.13.11-.19.03-.06.06-.12.09-.18s.05-.11.07-.16c.02-.01.05-.01.09,0,.04.01.07.04.1.06.03.03.05.06.07.1.01.04.01.08,0,.11-.01.02-.03.05-.05.1-.03.05-.06.1-.09.16-.04.06-.07.12-.11.18-.04.06-.08.12-.12.18l-.09.14h0c-.07.1-.14.21-.21.32-.07.11-.13.23-.2.36h0Zm-.7.26s.05-.02.09-.06.08-.07.12-.11c.04-.04.08-.09.12-.13.04-.05.08-.09.1-.13l.04-.08c.06-.11.12-.22.19-.33,0-.02,0-.05-.02-.06,0-.02-.03-.03-.06-.03-.06,0-.12.02-.19.07-.06.04-.13.1-.18.17s-.11.14-.16.22c-.05.08-.09.15-.12.21,0,.02-.02.04-.02.07s-.01.05-.02.08c0,.02,0,.04,0,.05s0,.03.01.04.02.02.03.02c.01,0,.04,0,.06,0Z"/>
  </g>
</svg>